/* XPM */
static char * blood_xpm[] = {
"128 128 2 1",
" 	c None",
".	c #4E0707",
"                                                                                                                                ",
"                                                                                                                                ",
"                                                                                                                                ",
"                                                                                                                                ",
"                                                                                                                                ",
"                                                                                                                                ",
"                                                                                                                                ",
"                                                                                                                                ",
"                                                                                                                                ",
"                                                                                                                                ",
"                                                                                                                                ",
"                                                                                                                                ",
"                                                         .......                                                                ",
"                                                 ...    ..........                                                              ",
"                                                ..     .............                                                            ",
"                                                     .................                                                          ",
"                                                    .....................                                                       ",
"                                                  .........................                                                     ",
"                                        .      ............................                                                     ",
"                                 .     .....................................                                                    ",
"                                 .     .....................................                                                    ",
"                                 .    ......................................                                                    ",
"                                ..    .....................................                        ........                     ",
"                                 .   .....................................                         .........                    ",
"                                    .....................................                          .........                    ",
"                                      ..................................                           ..........                   ",
"                                                 ......................                            ..........                   ",
"                                                   ...................                            ...........                   ",
"                                                    ..................                            ...........                   ",
"                                                     ................                            ............                   ",
"                                                     ...............                             .............                  ",
"                                                      .............                             ..............                  ",
"                                                      .............                      ......................                 ",
"                                                      .............                     .......................                 ",
"                                                      .............                    ........................                 ",
"                                                      .............                    ........................                 ",
"                                                      .............                   .........................                 ",
"                                                     ..............                   ........................                  ",
"                                                     ..............                   ........................                  ",
"                                                     ...............                  ........................                  ",
"                                                     ...............                  ........................                  ",
"                                                     ................                 ........................                  ",
"                                                     ................                 ...........    ........                   ",
"                                                     ................                 .........         .....                   ",
"                                                     ................                 ........            ...                   ",
"                                                     .................                 ......                                   ",
"                                                      ................                  ....                                    ",
"                                                      ................                                                          ",
"                                                      ................                                                          ",
"                                                       ...............                                                          ",
"                                                       ...............                                                          ",
"       .                                               ...............                                                          ",
"       ..     ..                                      ................                                                          ",
"       ..     .....                                   ...............                                                           ",
"       ..     ...........                            ................                                                           ",
"       ..    .............                           ................                                                           ",
"       ..   ..............                          .................                                                           ",
"       .    ...............                      ...................                                                            ",
"           .................              ..........................                                                            ",
"         ...................            ...........................                                                             ",
"        .....................          ...........................                                                              ",
"       ......................         ..........................                 ......                                         ",
"      .......................        ..........................                 ........                                        ",
"      .......................        .........................                 .........                                        ",
"      ......................         .......................                  ..........                                        ",
"      .....................          ......................                   ...........                                       ",
"       ...................           .....................                    ..........                                        ",
"       ..................             ...................                     ..........                                        ",
"        ................               .................                      ..........                                        ",
"          .............                  .............                        .........                                         ",
"            ..........                    ..........                           ........                                         ",
"               ......                        ...                               .......                                          ",
"                                                                              .........                                         ",
"                                                                             ..........                                         ",
"                                                                            ............                                        ",
"                                                                           ..............                                       ",
"                                                                         .................                                      ",
"                                                               ............................                                     ",
"                                                             ...............................                                    ",
"                                                            .................................                                   ",
"                                                           ...................................                                  ",
"                                                          ......................................    ....                        ",
"              ..                                          ..............................................                        ",
"          .........                                      ...............................................                        ",
"          ..........                                     ................................................                       ",
"          ...........                                    .................................................                      ",
"         .............                                  ..................................................                      ",
"         .............                                  ...................................................                     ",
"        ...............                                 ...................................................                     ",
"        ...............                                 ..................................................                      ",
"        ................                                .................................................                       ",
"        ................                                ................     ............................                       ",
"        ................                                   ...........          ...............  .......                        ",
"          .............                                      ........             ...........      .....                        ",
"           ............                                        .....               .........        ...                         ",
"            ...........                                         ...                 .......          ..                         ",
"             ..........                                                              ......          ..                         ",
"              .........                                                              .....            .                         ",
"               .......                                                               .....                                      ",
"               .......                                                               ......                                     ",
"                ......                                                              .......                                     ",
"                    .                                                              .........                                    ",
"                                                                                  ...........                                   ",
"                                                                                .............                                   ",
"                                                                               ...............                                  ",
"                                                                              .................                                 ",
"                                                                            ....................                                ",
"                                        .                                  .....................                                ",
"                                       ..                                  ......................                               ",
"                                       ..                                  ......................                               ",
"                                       ...                                 ......................                               ",
"                                       ...                                .......................                               ",
"                                       ...                                ......................                                ",
"                                        ...                              .......................                                ",
"                                          .                                ....................                                 ",
"                                                                             ..................                                 ",
"                                                                              ................                                  ",
"                                                                                .............                                   ",
"                                                                                 ...........                                    ",
"                                                                                  .........                                     ",
"                                                                                   .......                                      ",
"                                                                                   ......                                       ",
"                                                                                   ......                                       ",
"                                                                                    ....                                        ",
"                                                                                    ....                                        ",
"                                                                                      .                                         ",
"                                                                                                                                ",
"                                                                                                                                "};
