# Blender 3.6.5
# www.blender.org
mtllib spike.mtl
o Cube
v -0.500000 0.000000 0.500000
v -0.500000 0.000000 -0.500000
v 0.500000 0.000000 0.500000
v 0.500000 0.000000 -0.500000
v 0.000001 2.000000 -0.010837
vn 0.9701 0.2425 -0.0000
vn -0.9701 0.2425 -0.0000
vn -0.0000 0.2376 -0.9714
vn -0.0000 0.2475 0.9689
vt 0.744365 0.496694
vt 0.380590 0.330483
vt 0.744365 0.005075
vt 0.005075 0.834612
vt 0.371487 0.506844
vt 0.371487 0.994925
vt 0.746475 0.831060
vt 0.381637 0.994925
vt 0.381637 0.506844
vt 0.005075 0.005075
vt 0.370440 0.334009
vt 0.005075 0.496694
s 0
f 3/1/1 4/2/1 5/3/1
f 1/4/2 5/5/2 2/6/2
f 4/7/3 2/8/3 5/9/3
f 5/10/4 1/11/4 3/12/4
